<?xml version="1.0" standalone="no"?><!DOCTYPE svg PUBLIC "-//W3C//DTD SVG 1.1//EN" "http://www.w3.org/Graphics/SVG/1.1/DTD/svg11.dtd"><svg t="1620799872971" class="icon" viewBox="0 0 1024 1024" version="1.1" xmlns="http://www.w3.org/2000/svg" p-id="1413" xmlns:xlink="http://www.w3.org/1999/xlink" width="64" height="64"><defs><style type="text/css"></style></defs><path d="M678.4 615.168a166.4 166.4 0 1 1-332.8 0 166.4 166.4 0 0 1 332.8 0z" p-id="1414" fill="#1afa29"></path><path d="M963.264 505.344a25.6 25.6 0 0 1-18.048-7.424C829.312 382.72 675.456 319.232 512 319.232S194.688 382.72 78.784 497.92a25.6 25.6 0 0 1-36.096-36.352C168.32 336.768 334.976 268.032 512 268.032s343.744 68.736 469.312 193.536a25.6 25.6 0 0 1-18.048 43.776z" p-id="1415" fill="#1afa29"></path></svg>