<?xml version="1.0" standalone="no"?><!DOCTYPE svg PUBLIC "-//W3C//DTD SVG 1.1//EN" "http://www.w3.org/Graphics/SVG/1.1/DTD/svg11.dtd"><svg t="1620614545722" class="icon" viewBox="0 0 1024 1024" version="1.1" xmlns="http://www.w3.org/2000/svg" p-id="1636" xmlns:xlink="http://www.w3.org/1999/xlink" width="200" height="200"><defs><style type="text/css"></style></defs><path d="M595.626667 428.330667a32 32 0 0 1-45.226667 45.226666 131.712 131.712 0 0 0-180.224-5.674666l-6.058667 5.717333-149.546666 149.504a131.754667 131.754667 0 0 0 180.181333 192l6.101333-5.674667 74.752-74.794666a32 32 0 0 1 48.341334 41.685333l-3.072 3.584-74.752 74.752a195.712 195.712 0 0 1-283.733334-269.482667l6.912-7.296 149.546667-149.546666a195.712 195.712 0 0 1 276.778667 0z m259.072-258.986667a195.754667 195.754667 0 0 1 6.912 269.482667l-6.912 7.296-149.546667 149.546666a195.712 195.712 0 0 1-276.778667 0 32 32 0 0 1 45.226667-45.226666 131.712 131.712 0 0 0 180.224 5.674666l6.058667-5.717333 149.546666-149.504a131.754667 131.754667 0 0 0-180.181333-192l-6.101333 5.674667-74.752 74.794666a32 32 0 0 1-48.341334-41.685333l3.072-3.584 74.752-74.752a195.712 195.712 0 0 1 276.821334 0z" p-id="1637" fill="#1296db"></path></svg>