<?xml version="1.0" standalone="no"?><!DOCTYPE svg PUBLIC "-//W3C//DTD SVG 1.1//EN" "http://www.w3.org/Graphics/SVG/1.1/DTD/svg11.dtd"><svg t="1620613242870" class="icon" viewBox="0 0 1024 1024" version="1.1" xmlns="http://www.w3.org/2000/svg" p-id="1906" xmlns:xlink="http://www.w3.org/1999/xlink" width="200" height="200"><defs><style type="text/css"></style></defs><path d="M811.707317 1024h-599.414634C94.907317 1024 0 929.092683 0 811.707317v-599.414634C0 94.907317 94.907317 0 212.292683 0h599.414634C929.092683 0 1024 94.907317 1024 212.292683v599.414634c0 117.385366-94.907317 212.292683-212.292683 212.292683zM212.292683 24.97561C109.892683 24.97561 24.97561 109.892683 24.97561 212.292683v599.414634C24.97561 914.107317 109.892683 999.02439 212.292683 999.02439h599.414634c102.4 0 187.317073-84.917073 187.317073-187.317073v-599.414634C999.02439 109.892683 914.107317 24.97561 811.707317 24.97561h-599.414634z" p-id="1907" fill="#1296db"></path><path d="M117.385366 949.073171l94.907317-72.429269V89.912195h277.229268c104.897561 0 174.829268 4.995122 204.8 12.487805 49.95122 12.487805 89.912195 39.960976 122.380488 84.917073 32.468293 42.458537 49.95122 99.902439 49.95122 167.336586 0 52.44878-9.990244 97.404878-27.473171 132.370731s-42.458537 64.936585-72.429268 84.917073-59.941463 34.965854-89.912196 39.960976c-39.960976 9.990244-99.902439 12.487805-177.326829 12.487805h-112.390244v324.682927H117.385366zM384.62439 237.268293v244.760975h94.907317c67.434146 0 114.887805-4.995122 137.365854-12.487805s39.960976-22.478049 54.946341-42.458536 19.980488-42.458537 19.980488-67.434147c0-32.468293-9.990244-57.443902-27.47317-77.42439s-42.458537-32.468293-69.931708-37.463414c-19.980488-4.995122-62.439024-4.995122-124.878049-4.995122h-84.917073z" p-id="1908" fill="#1296db"></path></svg>