<?xml version="1.0" standalone="no"?><!DOCTYPE svg PUBLIC "-//W3C//DTD SVG 1.1//EN" "http://www.w3.org/Graphics/SVG/1.1/DTD/svg11.dtd"><svg t="1620789172340" class="icon" viewBox="0 0 1024 1024" version="1.1" xmlns="http://www.w3.org/2000/svg" p-id="1975" xmlns:xlink="http://www.w3.org/1999/xlink" width="64" height="64"><defs><style type="text/css"></style></defs><path d="M799.85 392h-22.5v-60a270 270 0 1 0-540 0v60h-22.5a90 90 0 0 0-90 90v390a90 90 0 0 0 90 90h585a90 90 0 0 0 90-90V482a90 90 0 0 0-90-90z m-502.5-60a210 210 0 1 1 420 0v60h-420z m532.5 540a30 30 0 0 1-30 30h-585a30 30 0 0 1-30-30V482a30 30 0 0 1 30-30h585a30 30 0 0 1 30 30z" p-id="1976" fill="#1296db"></path><path d="M507.35 542a75 75 0 0 0-30 143.7V782a30 30 0 0 0 60 0v-96.3a75 75 0 0 0-30-143.7z" p-id="1977" fill="#1296db"></path></svg>