<?xml version="1.0" standalone="no"?><!DOCTYPE svg PUBLIC "-//W3C//DTD SVG 1.1//EN" "http://www.w3.org/Graphics/SVG/1.1/DTD/svg11.dtd"><svg t="1621043941524" class="icon" viewBox="0 0 1024 1024" version="1.1" xmlns="http://www.w3.org/2000/svg" p-id="1900" xmlns:xlink="http://www.w3.org/1999/xlink" width="64" height="64"><defs><style type="text/css"></style></defs><path d="M662.528 531.968c76.8-49.152 127.488-135.168 127.488-232.448 0-152.576-124.416-276.48-278.016-276.48-153.088 0-278.016 123.904-278.016 276.48 0 97.28 50.688 182.784 127.488 232.448-183.808 62.976-316.416 238.08-316.416 443.392 0 20.992 17.408 38.4 38.4 38.4s38.4-17.408 38.4-38.4C121.856 759.296 296.96 583.68 512 583.68s390.144 175.616 390.144 391.68c0 20.992 17.408 38.4 38.4 38.4s38.4-17.408 38.4-38.4c0-205.312-132.608-380.416-316.416-443.392zM512 499.2c-111.104 0-201.216-89.6-201.216-199.68s90.112-199.68 201.216-199.68 201.216 89.6 201.216 199.68-90.112 199.68-201.216 199.68z" p-id="1901" fill="#1296db"></path><path d="M653.824 702.464l-173.568 172.544-75.264-74.752c-14.848-14.848-39.424-14.848-54.272 0-14.848 14.848-14.848 39.424 0 54.272l129.536 129.024 227.84-226.816c14.848-14.848 14.848-39.424 0-54.272-14.848-14.848-39.424-14.848-54.272 0z" p-id="1902" fill="#1296db"></path></svg>