<?xml version="1.0" standalone="no"?><!DOCTYPE svg PUBLIC "-//W3C//DTD SVG 1.1//EN" "http://www.w3.org/Graphics/SVG/1.1/DTD/svg11.dtd"><svg t="1620788978400" class="icon" viewBox="0 0 1024 1024" version="1.1" xmlns="http://www.w3.org/2000/svg" p-id="3199" xmlns:xlink="http://www.w3.org/1999/xlink" width="64" height="64"><defs><style type="text/css"></style></defs><path d="M652.86144 679.54688c-53.37088-24.6784-87.552-78.15168-87.53152-136.94976v-55.88992c0-83.31264 67.54304-150.85568 150.85568-150.85568s150.85568 67.54304 150.85568 150.85568v55.88992a150.802432 150.802432 0 0 1-83.80416 135.168c157.55264 35.26656 229.04832 200.43776 229.04832 250.14272v31.49824c0 13.55776-10.99776 24.576-24.576 24.576H455.82336c-13.57824 0-24.576-10.99776-24.576-24.576v-31.29344c0-49.0496 69.28384-209.83808 221.61408-248.56576z m261.71392-300.62592c-13.57824 0-24.576-10.99776-24.576-24.576V124.88704H126.30016v797.88032h212.00896c13.57824 0 24.576 10.99776 24.576 24.576v24.576c0 13.57824-10.99776 24.576-24.576 24.576H77.18912c-13.57824 0-24.576-10.99776-24.576-24.576V75.776c0-13.57824 10.99776-24.576 24.576-24.576h861.96224c13.57824 0 24.576 10.99776 24.576 24.576v278.58944c0 13.55776-10.99776 24.576-24.576 24.576h-24.576zM200.56064 433.58208v-24.55552c0-13.57824 10.99776-24.576 24.576-24.576h104.6528c13.57824 0 24.576 10.99776 24.576 24.576v24.55552c0 13.57824-10.99776 24.576-24.576 24.576h-104.6528c-13.57824-0.02048-24.576-11.01824-24.576-24.576z m0-162.34496v-24.576c0-13.55776 10.99776-24.55552 24.576-24.55552h326.81984c13.57824 0 24.576 10.99776 24.576 24.55552v24.576c0 13.57824-10.99776 24.576-24.576 24.576H225.11616c-13.55776 0-24.55552-10.99776-24.55552-24.576zM885.5552 825.67168c-42.8032-51.48672-97.44384-80.91648-163.77856-80.91648s-120.99584 29.45024-163.75808 80.93696c-23.57248 28.34432-41.30816 62.5664-48.9472 84.52096h425.472c-7.61856-21.89312-25.3952-56.15616-48.98816-84.54144z m-169.34912-416.11264c-20.45952 0-40.07936 8.13056-54.55872 22.58944a77.217792 77.217792 0 0 0-22.58944 54.55872v55.88992a77.139968 77.139968 0 0 0 115.712 66.80576 77.105152 77.105152 0 0 0 38.56384-66.80576v-55.88992c0-20.45952-8.13056-40.07936-22.58944-54.55872a77.135872 77.135872 0 0 0-54.53824-22.58944z m0 0" p-id="3200" fill="#1296db"></path></svg>